HIERARCHY
ROOT ui
{
	 OFFSET 0 0 0
	 CHANNELS 3 XPosition YPosition Z Position
	 EndSite
	 {
	 OFFSET 0 -1 0
	 }
}
ROOT li
{
	 OFFSET 0 0 0
	 CHANNELS 3 XPosition YPosition Z Position
	 EndSite
	 {
	 OFFSET 0 -1 0
	 }
}
ROOT ul
{
	 OFFSET 0 0 0
	 CHANNELS 3 XPosition YPosition Z Position
	 EndSite
	 {
	 OFFSET 0 -1 0
	 }
}
ROOT ll
{
	 OFFSET 0 0 0
	 CHANNELS 3 XPosition YPosition Z Position
	 EndSite
	 {
	 OFFSET 0 -1 0
	 }
}
ROOT tt
{
	 OFFSET 0 0 0
	 CHANNELS 3 XPosition YPosition Z Position
	 EndSite
	 {
	 OFFSET 0 -1 0
	 }
}
ROOT tb
{
	 OFFSET 0 0 0
	 CHANNELS 3 XPosition YPosition Z Position
	 EndSite
	 {
	 OFFSET 0 -1 0
	 }
}
ROOT td
{
	 OFFSET 0 0 0
	 CHANNELS 3 XPosition YPosition Z Position
	 EndSite
	 {
	 OFFSET 0 -1 0
	 }
}
ROOT v
{
	 OFFSET 0 0 0
	 CHANNELS 3 XPosition YPosition Z Position
	 EndSite
	 {
	 OFFSET 0 -1 0
	 }
}
ROOT bn
{
	 OFFSET 0 0 0
	 CHANNELS 3 XPosition YPosition Z Position
	 EndSite
	 {
	 OFFSET 0 -1 0
	 }
}
MOTION
Frames: 21
Frame Time: 0.002
0.002637397050857544	0.0027353971004486083	0		0.5385726928710938	-2.458235595703125	0		-1.0087634887695311	0.05652413558959961	0		-0.737969970703125	-2.4931025390625	0		1.3647694091796876	-0.7865454711914063	0		3.214626220703125	-0.33489218139648436	0		4.70187255859375	-0.24568434143066406	0		5.62371630859375	0.13169338989257812	0		-0.07750814819335937	6.00422802734375	0		
0.06698954010009765	0.006206573963165284	0		0.6156947631835937	-2.466945068359375	0		-0.973470703125	0.05539482879638672	0		-0.7156798706054688	-2.488075927734375	0		1.3610390625	-0.7872548217773437	0		3.245957763671875	-0.3321032409667969	0		4.70326025390625	-0.23856208801269532	0		5.61025634765625	0.14997601318359374	0		-0.04415586853027344	5.993095703125	0		
2.5669699907302857E-4	-0.0026323881149291992	0		0.5539968872070312	-2.46686572265625	0		-0.9870792236328125	0.055914993286132815	0		-0.684449462890625	-2.49413525390625	0		1.4172708740234374	-0.7976976318359374	0		3.2323623046875	-0.32971795654296876	0		4.6886298828125	-0.23921038818359375	0		5.59663818359375	0.14928604125976563	0		-0.08166178894042969	5.9868916015625	0		
0.03491565704345703	0.009276617050170898	0		0.577385986328125	-2.469833251953125	0		-0.9896828002929687	0.04732886505126953	0		-0.7270303955078125	-2.494222412109375	0		1.3477724609375	-0.795509033203125	0		3.238809326171875	-0.33355560302734377	0		4.69611767578125	-0.24010812377929688	0		5.61289599609375	0.129245849609375	0		-0.0849715576171875	5.9862880859375	0		
-0.006598053932189941	-0.003809926986694336	0		0.5200224609375	-2.464734619140625	0		-0.9879945068359375	0.049725433349609376	0		-0.6726975708007813	-2.513509521484375	0		1.410364501953125	-0.79896728515625	0		3.220576171875	-0.32404232788085935	0		4.689912109375	-0.22879582214355468	0		5.594677734375	0.13868159484863282	0		-0.0919097900390625	6.00276904296875	0		
0.038277721405029295	-9.600300192832946E-4	0		0.5477930908203125	-2.463684326171875	0		-0.9911642456054688	0.04922240447998047	0		-0.7448307495117188	-2.50414013671875	0		1.3472869873046875	-0.7897818603515625	0		3.230431396484375	-0.3218504333496094	0		4.697732421875	-0.22962641906738282	0		5.6063818359375	0.1277708511352539	0		-0.09488372039794922	6.002236328125	0		
0.032501777648925784	0.01357810115814209	0		0.5447430419921875	-2.4642001953125	0		-0.9941312866210937	0.04875726318359375	0		-0.6957451782226562	-2.49428173828125	0		1.409248291015625	-0.794158203125	0		3.2274521484375	-0.3224549865722656	0		4.6837568359375	-0.23013824462890625	0		5.59854638671875	0.13715118408203125	0		-0.0938727035522461	5.98469189453125	0		
0.037494834899902345	-0.006983532905578614	0		0.5648203125	-2.471972900390625	0		-1.002814208984375	0.05340760040283203	0		-0.7745320434570313	-2.490740478515625	0		1.3384783935546876	-0.7937890014648438	0		3.2295888671875	-0.33108450317382815	0		4.68384521484375	-0.24278977966308593	0		5.58581494140625	0.13763565063476563	0		-0.09642448425292968	5.98423583984375	0		
-0.032839813232421876	0.007470718860626221	0		0.5352464599609374	-2.47006396484375	0		-1.0044364013671876	0.045007747650146486	0		-0.7072564697265625	-2.501037841796875	0		1.395797607421875	-0.8050267944335937	0		3.181202880859375	-0.3200187072753906	0		4.6703173828125	-0.2432223663330078	0		5.58840185546875	0.14496636962890624	0		-0.09874851989746093	5.983818359375	0		
0.017869041442871093	0.006403838157653809	0		0.5059201965332031	-2.467114990234375	0		-1.0796640625	0.049601688385009765	0		-0.7706326904296875	-2.5016083984375	0		1.3336187744140624	-0.7946795654296875	0		3.224759521484375	-0.33209872436523435	0		4.67617724609375	-0.23186131286621095	0		5.595873046875	0.12527426147460938	0		-0.10363357543945312	5.9994765625	0		
0.037726951599121095	-0.0012273190021514892	0		0.5437102661132812	-2.4739951171875	0		-1.0346253662109375	0.05568041229248047	0		-0.7208447265625	-2.508603271484375	0		1.334582275390625	-0.792107421875	0		3.224932373046875	-0.3145754699707031	0		4.68209326171875	-0.23446070861816407	0		5.5979306640625	0.1326964111328125	0		-0.07044203948974609	6.0026796875	0		
0.035914894104003905	-0.0015402450561523438	0		0.5349510498046876	-2.46423388671875	0		-1.0014906005859374	0.05094666290283203	0		-0.7794708251953125	-2.4881533203125	0		1.332745361328125	-0.7924611206054688	0		3.210072509765625	-0.31781939697265627	0		4.6832998046875	-0.23295878601074219	0		5.5871494140625	0.13432550048828126	0		-0.10810131072998047	5.99983837890625	0		
0.012427358627319337	0.005464364051818848	0		0.5541757202148437	-2.473803466796875	0		-1.007121337890625	0.0467496109008789	0		-0.7112510375976563	-2.49832080078125	0		1.3281015625	-0.7957430419921875	0		3.177497802734375	-0.31679461669921877	0		4.657662109375	-0.23707005310058593	0		5.57557373046875	0.13400372314453124	0		-0.10571920776367187	5.9825107421875	0		
-0.02710061264038086	-0.0072904257774353024	0		0.525768310546875	-2.47171923828125	0		-1.014415771484375	0.05160603332519531	0		-0.716739501953125	-2.50249853515625	0		1.3837113037109374	-0.79677880859375	0		3.21484912109375	-0.3386490173339844	0		4.6611884765625	-0.24552603149414062	0		5.56933447265625	0.14264933776855468	0		-0.10690142822265625	5.98226220703125	0		
0.009908283233642578	0.004986001968383789	0		0.5515100708007813	-2.474313720703125	0		-1.009637939453125	0.046331523895263675	0		-0.7420204467773438	-2.50638916015625	0		1.32553515625	-0.7962991333007813	0		3.18995849609375	-0.3176563720703125	0		4.67125830078125	-0.22803329467773437	0		5.5779443359375	0.12413179779052734	0		-0.11166210174560547	5.99909033203125	0		
-0.036963577270507815	0.012385114669799805	0		0.5005950622558594	-2.464877685546875	0		-1.049587890625	0.047668018341064454	0		-0.7280993041992188	-2.50976806640625	0		1.3275841064453124	-0.7935792846679688	0		3.210875	-0.32623715209960935	0		4.66538916015625	-0.22030300903320313	0		5.5869658203125	0.12264064025878907	0		-0.07838542938232422	6.00444384765625	0		
0.022966428756713866	-0.009597982406616211	0		0.5536692504882812	-2.47078466796875	0		-1.0113922729492189	0.04599954605102539	0		-0.739849853515625	-2.501788818359375	0		1.3208662109375	-0.7867210693359376	0		3.20823486328125	-0.31448260498046876	0		4.66641015625	-0.23463790893554687	0		5.5764306640625	0.141435791015625	0		-0.14337538146972656	5.97710498046875	0		
0.020451433181762697	-0.0017427109479904175	0		0.5219624633789063	-2.47256005859375	0		-1.0120113525390626	0.04585551071166992	0		-0.7164963989257812	-2.499256103515625	0		1.3831282958984374	-0.7947533569335937	0		3.21251416015625	-0.32179928588867185	0		4.66578369140625	-0.23492648315429687	0		5.5806953125	0.13205899047851563	0		-0.07948036956787109	6.00409375	0		
0.007069025993347168	0.0042681069374084476	0		0.5484124755859375	-2.475088134765625	0		-1.0175120239257813	0.04278605651855469	0		-0.7580410766601563	-2.500857666015625	0		1.316692138671875	-0.7910755004882812	0		3.1720869140625	-0.31850772094726565	0		4.6653154296875	-0.2351967010498047	0		5.585103515625	0.12170200347900391	0		-0.11010147857666015	5.98133349609375	0		
-0.031418285369873046	-0.008382311820983887	0		0.49411080932617185	-2.46954052734375	0		-1.0517742919921875	0.04710345077514649	0		-0.708524169921875	-2.50965478515625	0		1.3194085693359374	-0.78729736328125	0		3.197560546875	-0.33407192993164064	0		4.66988525390625	-0.243516357421875	0		5.57480126953125	0.12255987548828125	0		-0.07901642608642578	6.00177099609375	0		
0.02846566390991211	-0.0033268680572509767	0		0.5269232788085938	-2.4661376953125	0		-1.0388189697265624	0.05779998016357422	0		-0.7766110229492188	-2.49789306640625	0		1.3281629638671875	-0.7905924072265625	0		3.213746337890625	-0.30549853515625	0		4.671955078125	-0.2237852783203125	0		5.58870458984375	0.12911587524414062	0		-0.07810416412353516	6.00060888671875	0		
